<svg width="20" height="35" viewBox="0 0 20 35" fill="none" xmlns="http://www.w3.org/2000/svg">
<circle cx="10" cy="1.5" r="0.5" fill="#1BACE3"/>
<circle cx="10" cy="3" r="0.5" fill="#1BACE3"/>
<circle cx="10" cy="4.5" r="0.5" fill="#1BACE3"/>
<path d="M10 5.5V0.5" stroke="#1BACE3" stroke-width="0.4" stroke-linecap="round"/>
<path d="M6 7.79999L10 6.29999L14 7.79999" stroke="#1BACE3" stroke-linecap="round"/>
<path d="M8.5 14L9.5 15M7.5 24.5L7 28.5H5L7 30L9 31M7 29H8L8.5 28L9 27.5L8.5 26.5H5.5L5 27.5M5 27.5V28M5 27.5L5.5 25.5L3.5 22H2V23L2.5 24.5L3 26.5L5 30L9 33L9.5 32V22.5L10 20.5L9.5 20H9L3 21H1.5V20L2 19.5L6.61538 18.2692M1 15L10.5 13L10 15.5L4.5 16L9 14.5L2 16.25M2 16.25L1 16.5L2 16V16.25ZM2 16.25V18L5 17.5L8.5 16.5L10.5 17V18.5L8 19V18.125M8 18.125L3.5 20L6.61538 18.2692M8 18.125L9.5 17.5L8 17.9M8 18.125V17.9M8 17.9V17.5L6.61538 18.2692M8 17.9L6.61538 18.2692" stroke="#059657" stroke-width="2"/>
<path d="M5.04564 12.4909C2.3572 13.3067 0.122277 13.9912 0.0755218 14.01C-0.00863832 14.0428 -0.00863833 14.2069 0.0100639 18.2483C0.0287662 22.8383 0.0240906 22.7164 0.318651 23.9353C0.875043 26.2327 2.28239 28.6238 4.32093 30.7242C5.86854 32.3229 7.48161 33.57 9.4547 34.6906L10.0017 35L10.5535 34.6906C15.2477 32.0182 18.717 27.9299 19.6848 23.9353C19.9794 22.7164 19.9747 22.8383 19.9934 18.2671C20.0074 15.965 19.9981 14.0616 19.9747 14.0428C19.9373 14.0006 10.0298 10.9906 9.96901 11C9.94563 11.0047 7.73409 11.6752 5.04564 12.4909ZM10.0017 22.932V33.2747L9.82874 33.1668C8.23437 32.1963 7.21978 31.4321 5.93867 30.2272C3.89078 28.3003 2.34784 25.8529 1.79613 23.654C1.54365 22.6413 1.53897 22.5382 1.53897 18.6984V15.1352L5.71425 13.8693C8.00527 13.1708 9.9129 12.5988 9.94563 12.5941C9.98771 12.5894 10.0017 14.6851 10.0017 22.932Z" fill="#1BACE3"/>
<path d="M9.47865 23.2745C9.47865 25.7859 8.02555 27.8279 6.23932 27.8279C4.44736 27.8279 3 25.7918 3 23.2745C3 21.2325 3.95916 19.5015 5.28016 18.9265V13.8274C5.88323 13.4812 6.5265 13.2054 7.20423 13V18.9323C8.51949 19.5015 9.47865 21.2325 9.47865 23.2745Z" fill="#FFC62B"/>
<path d="M17.5604 17.152V21.9812C17.5604 23.2076 16.7965 24.2579 15.7339 24.6628V30.1374C15.1021 30.5012 14.4302 30.7888 13.7237 31V24.6393C12.6669 24.1992 11.949 23.1019 11.949 21.8873V17.1755C11.949 16.6004 12.374 16.1193 12.9196 16.043V19.5989C12.9196 19.9333 13.1896 20.2091 13.5169 20.2091C13.6835 20.2091 13.8328 20.1387 13.942 20.0272C14.0511 19.9157 14.1143 19.7632 14.1143 19.5989V16.6826C14.1143 16.4889 14.1889 16.2953 14.3383 16.1721C14.4474 16.0841 14.5795 16.0312 14.7288 16.0312C14.8437 16.0312 14.9586 16.0606 15.0505 16.1193C15.24 16.2366 15.3434 16.4596 15.3434 16.6884V19.5989C15.3434 19.9333 15.6133 20.2091 15.9407 20.2091C16.1073 20.2091 16.2566 20.1387 16.3657 20.0272C16.4748 19.9157 16.538 19.7632 16.538 19.5989V16.0371C17.1124 16.0782 17.5604 16.5594 17.5604 17.152Z" fill="#FFC62B"/>
<path d="M1 12.5L10 9.5L19 12.5" stroke="#1BACE3" stroke-linecap="round"/>
<path d="M1 15.3L10 12.3L19 15.3" stroke="#1BACE3" stroke-width="0.5"/>
<path d="M4 10L10 8L16 10" stroke="#1BACE3" stroke-linecap="round"/>
<path d="M19 24.5L17.5 27.5L17 28.23L16.5 29L15.5 29.9999L15 30.4999L14.5 30.9999L14 31.4999L12 32.9999L10.5 34.0001" stroke="#1BACE3"/>
</svg>
