<svg width="103" height="42" viewBox="0 0 103 42" fill="none" xmlns="http://www.w3.org/2000/svg">
<circle cx="10" cy="2.5" r="0.5" fill="#1BACE3"/>
<circle cx="10" cy="4" r="0.5" fill="#1BACE3"/>
<circle cx="10" cy="5.5" r="0.5" fill="#1BACE3"/>
<path d="M10 6.5V1.5" stroke="#1BACE3" stroke-width="0.4" stroke-linecap="round"/>
<path d="M6 8.79999L10 7.29999L14 8.79999" stroke="#1BACE3" stroke-linecap="round"/>
<path d="M8.5 15L9.5 16M7.5 25.5L7 29.5H5L7 31L9 32M7 30H8L8.5 29L9 28.5L8.5 27.5H5.5L5 28.5M5 28.5V29M5 28.5L5.5 26.5L3.5 23H2V24L2.5 25.5L3 27.5L5 31L9 34L9.5 33V23.5L10 21.5L9.5 21H9L3 22H1.5V21L2 20.5L6.61538 19.2692M1 16L10.5 14L10 16.5L4.5 17L9 15.5L2 17.25M2 17.25L1 17.5L2 17V17.25ZM2 17.25V19L5 18.5L8.5 17.5L10.5 18V19.5L8 20V19.125M8 19.125L3.5 21L6.61538 19.2692M8 19.125L9.5 18.5L8 18.9M8 19.125V18.9M8 18.9V18.5L6.61538 19.2692M8 18.9L6.61538 19.2692" stroke="#059657" stroke-width="2"/>
<path d="M5.04564 13.4909C2.3572 14.3067 0.122277 14.9912 0.0755218 15.01C-0.00863832 15.0428 -0.00863833 15.2069 0.0100639 19.2483C0.0287662 23.8383 0.0240906 23.7164 0.318651 24.9353C0.875043 27.2327 2.28239 29.6238 4.32093 31.7242C5.86854 33.3229 7.48161 34.57 9.4547 35.6906L10.0017 36L10.5535 35.6906C15.2477 33.0182 18.717 28.9299 19.6848 24.9353C19.9794 23.7164 19.9747 23.8383 19.9934 19.2671C20.0074 16.965 19.9981 15.0616 19.9747 15.0428C19.9373 15.0006 10.0298 11.9906 9.96901 12C9.94563 12.0047 7.73409 12.6752 5.04564 13.4909ZM10.0017 23.932V34.2747L9.82874 34.1668C8.23438 33.1963 7.21978 32.4321 5.93867 31.2272C3.89078 29.3003 2.34784 26.8529 1.79613 24.654C1.54365 23.6413 1.53897 23.5382 1.53897 19.6984V16.1352L5.71425 14.8693C8.00527 14.1708 9.9129 13.5988 9.94563 13.5941C9.98771 13.5894 10.0017 15.6851 10.0017 23.932Z" fill="#1BACE3"/>
<path d="M62.305 31.596C62.627 31.596 62.9 31.5563 63.124 31.477C63.3527 31.393 63.5393 31.2787 63.684 31.134C63.8287 30.9893 63.9337 30.8213 63.999 30.63C64.0643 30.434 64.097 30.224 64.097 30C64.097 29.552 63.95 29.202 63.656 28.95C63.3667 28.698 62.9163 28.572 62.305 28.572H61.353V31.596H62.305ZM67.331 37H65.189C64.7923 37 64.5077 36.8507 64.335 36.552L62.641 33.591C62.5617 33.465 62.473 33.374 62.375 33.318C62.277 33.2573 62.137 33.227 61.955 33.227H61.353V37H58.987V26.801H62.305C63.0423 26.801 63.67 26.878 64.188 27.032C64.7107 27.1813 65.1353 27.3913 65.462 27.662C65.7933 27.9327 66.0337 28.2523 66.183 28.621C66.3323 28.9897 66.407 29.391 66.407 29.825C66.407 30.1563 66.3627 30.469 66.274 30.763C66.1853 31.057 66.0547 31.33 65.882 31.582C65.7093 31.8293 65.4947 32.051 65.238 32.247C64.986 32.443 64.6943 32.604 64.363 32.73C64.517 32.8093 64.6617 32.9097 64.797 33.031C64.9323 33.1477 65.0537 33.2877 65.161 33.451L67.331 37Z" fill="#FFC62B"/>
<path d="M44.019 35.215C44.3317 35.215 44.586 35.1753 44.782 35.096C44.9827 35.0167 45.139 34.914 45.251 34.788C45.363 34.662 45.44 34.5197 45.482 34.361C45.524 34.2023 45.545 34.0413 45.545 33.878C45.545 33.6913 45.5193 33.5233 45.468 33.374C45.4213 33.2247 45.3373 33.0987 45.216 32.996C45.0993 32.8933 44.943 32.814 44.747 32.758C44.551 32.702 44.3037 32.674 44.005 32.674H42.353V35.215H44.019ZM42.353 28.572V31.092H43.585C43.8463 31.092 44.082 31.0733 44.292 31.036C44.502 30.9987 44.6793 30.9333 44.824 30.84C44.9733 30.7467 45.0853 30.6183 45.16 30.455C45.2393 30.2917 45.279 30.0863 45.279 29.839C45.279 29.5963 45.2487 29.3957 45.188 29.237C45.1273 29.0737 45.034 28.943 44.908 28.845C44.782 28.747 44.621 28.677 44.425 28.635C44.2337 28.593 44.005 28.572 43.739 28.572H42.353ZM43.739 26.801C44.4437 26.801 45.0433 26.8663 45.538 26.997C46.0327 27.1277 46.4363 27.312 46.749 27.55C47.0617 27.788 47.288 28.0773 47.428 28.418C47.5727 28.7587 47.645 29.139 47.645 29.559C47.645 29.7877 47.6123 30.0093 47.547 30.224C47.4817 30.434 47.379 30.6323 47.239 30.819C47.099 31.001 46.9193 31.169 46.7 31.323C46.4807 31.477 46.217 31.61 45.909 31.722C46.581 31.8853 47.078 32.149 47.4 32.513C47.722 32.877 47.883 33.3483 47.883 33.927C47.883 34.361 47.799 34.7647 47.631 35.138C47.463 35.5113 47.2157 35.838 46.889 36.118C46.567 36.3933 46.168 36.6103 45.692 36.769C45.216 36.923 44.6723 37 44.061 37H39.987V26.801H43.739ZM54.5782 33.101L53.6332 30.308C53.5632 30.1307 53.4885 29.923 53.4092 29.685C53.3298 29.4423 53.2505 29.181 53.1712 28.901C53.1012 29.1857 53.0265 29.4493 52.9472 29.692C52.8678 29.9347 52.7932 30.1447 52.7232 30.322L51.7852 33.101H54.5782ZM58.3372 37H56.5032C56.2978 37 56.1322 36.9533 56.0062 36.86C55.8802 36.762 55.7845 36.6383 55.7192 36.489L55.1172 34.711H51.2392L50.6372 36.489C50.5858 36.6197 50.4925 36.7387 50.3572 36.846C50.2265 36.9487 50.0632 37 49.8672 37H48.0192L51.9672 26.801H54.3892L58.3372 37Z" fill="#FFC62B"/>
<path d="M28.208 33.304C28.208 33.8733 28.1357 34.3913 27.991 34.858C27.851 35.3247 27.6363 35.726 27.347 36.062C27.0623 36.3933 26.703 36.6523 26.269 36.839C25.835 37.021 25.324 37.112 24.736 37.112C24.47 37.112 24.2063 37.098 23.945 37.07C23.6883 37.042 23.42 36.9953 23.14 36.93L23.266 35.551C23.28 35.4297 23.329 35.3317 23.413 35.257C23.497 35.1823 23.616 35.145 23.77 35.145C23.8493 35.145 23.9473 35.159 24.064 35.187C24.1807 35.2103 24.3207 35.222 24.484 35.222C24.7127 35.222 24.911 35.1917 25.079 35.131C25.2517 35.0657 25.394 34.9607 25.506 34.816C25.618 34.6667 25.702 34.473 25.758 34.235C25.814 33.997 25.842 33.703 25.842 33.353V26.801H28.208V33.304ZM35.3106 33.101L34.3656 30.308C34.2956 30.1307 34.2209 29.923 34.1416 29.685C34.0623 29.4423 33.9829 29.181 33.9036 28.901C33.8336 29.1857 33.7589 29.4493 33.6796 29.692C33.6003 29.9347 33.5256 30.1447 33.4556 30.322L32.5176 33.101H35.3106ZM39.0696 37H37.2356C37.0303 37 36.8646 36.9533 36.7386 36.86C36.6126 36.762 36.5169 36.6383 36.4516 36.489L35.8496 34.711H31.9716L31.3696 36.489C31.3183 36.6197 31.2249 36.7387 31.0896 36.846C30.9589 36.9487 30.7956 37 30.5996 37H28.7516L32.6996 26.801H35.1216L39.0696 37Z" fill="#1BACE3"/>
<path d="M45.847 20.897C45.847 21.6343 45.7187 22.3203 45.462 22.955C45.21 23.5897 44.853 24.1427 44.391 24.614C43.929 25.0807 43.3713 25.447 42.718 25.713C42.0693 25.979 41.3483 26.112 40.555 26.112C39.7617 26.112 39.0383 25.979 38.385 25.713C37.7317 25.447 37.1717 25.0807 36.705 24.614C36.243 24.1427 35.8837 23.5897 35.627 22.955C35.375 22.3203 35.249 21.6343 35.249 20.897C35.249 20.1597 35.375 19.4737 35.627 18.839C35.8837 18.2043 36.243 17.6537 36.705 17.187C37.1717 16.7203 37.7317 16.354 38.385 16.088C39.0383 15.822 39.7617 15.689 40.555 15.689C41.3483 15.689 42.0693 15.8243 42.718 16.095C43.3713 16.361 43.929 16.7273 44.391 17.194C44.853 17.6607 45.21 18.2113 45.462 18.846C45.7187 19.4807 45.847 20.1643 45.847 20.897ZM43.425 20.897C43.425 20.393 43.3597 19.9403 43.229 19.539C43.0983 19.133 42.9093 18.79 42.662 18.51C42.4193 18.23 42.1207 18.0153 41.766 17.866C41.4113 17.7167 41.0077 17.642 40.555 17.642C40.0977 17.642 39.6893 17.7167 39.33 17.866C38.9753 18.0153 38.6743 18.23 38.427 18.51C38.1843 18.79 37.9977 19.133 37.867 19.539C37.7363 19.9403 37.671 20.393 37.671 20.897C37.671 21.4057 37.7363 21.863 37.867 22.269C37.9977 22.6703 38.1843 23.011 38.427 23.291C38.6743 23.571 38.9753 23.7857 39.33 23.935C39.6893 24.0797 40.0977 24.152 40.555 24.152C41.0077 24.152 41.4113 24.0797 41.766 23.935C42.1207 23.7857 42.4193 23.571 42.662 23.291C42.9093 23.011 43.0983 22.6703 43.229 22.269C43.3597 21.863 43.425 21.4057 43.425 20.897ZM58.7054 15.801V26H56.6194V20.134C56.6194 19.9987 56.6217 19.8517 56.6264 19.693C56.6357 19.5343 56.6497 19.3733 56.6684 19.21L53.9594 24.453C53.8754 24.6163 53.761 24.74 53.6164 24.824C53.4764 24.908 53.3154 24.95 53.1334 24.95H52.8114C52.6294 24.95 52.466 24.908 52.3214 24.824C52.1814 24.74 52.0694 24.6163 51.9854 24.453L49.2763 19.196C49.2904 19.364 49.302 19.5297 49.3113 19.693C49.3207 19.8517 49.3253 19.9987 49.3253 20.134V26H47.2393V15.801H49.0453C49.148 15.801 49.2367 15.8033 49.3113 15.808C49.3907 15.8127 49.4607 15.8267 49.5213 15.85C49.582 15.8733 49.6357 15.9107 49.6823 15.962C49.7337 16.0087 49.7827 16.0763 49.8294 16.165L52.4544 21.338C52.5477 21.5153 52.6363 21.6997 52.7204 21.891C52.809 22.0823 52.893 22.2783 52.9724 22.479C53.0517 22.2737 53.1334 22.073 53.2174 21.877C53.306 21.681 53.3994 21.4943 53.4974 21.317L56.1154 16.165C56.162 16.0763 56.2087 16.0087 56.2553 15.962C56.3067 15.9107 56.3627 15.8733 56.4234 15.85C56.484 15.8267 56.5517 15.8127 56.6264 15.808C56.7057 15.8033 56.7967 15.801 56.8994 15.801H58.7054ZM66.0688 22.101L65.1238 19.308C65.0538 19.1307 64.9791 18.923 64.8998 18.685C64.8205 18.4423 64.7411 18.181 64.6618 17.901C64.5918 18.1857 64.5171 18.4493 64.4378 18.692C64.3585 18.9347 64.2838 19.1447 64.2138 19.322L63.2758 22.101H66.0688ZM69.8278 26H67.9938C67.7885 26 67.6228 25.9533 67.4968 25.86C67.3708 25.762 67.2751 25.6383 67.2098 25.489L66.6078 23.711H62.7298L62.1278 25.489C62.0765 25.6197 61.9831 25.7387 61.8478 25.846C61.7171 25.9487 61.5538 26 61.3578 26H59.5098L63.4578 15.801H65.8798L69.8278 26ZM79.5359 15.801V26H78.3039C78.1219 26 77.9679 25.972 77.8419 25.916C77.7206 25.8553 77.5993 25.7527 77.4779 25.608L72.6689 19.525C72.6876 19.707 72.6993 19.8843 72.7039 20.057C72.7133 20.225 72.7179 20.3837 72.7179 20.533V26H70.6319V15.801H71.8779C71.9806 15.801 72.0669 15.8057 72.1369 15.815C72.2069 15.8243 72.2699 15.843 72.3259 15.871C72.3819 15.8943 72.4356 15.9293 72.4869 15.976C72.5383 16.0227 72.5966 16.0857 72.6619 16.165L77.5129 22.29C77.4896 22.094 77.4733 21.905 77.4639 21.723C77.4546 21.5363 77.4499 21.3613 77.4499 21.198V15.801H79.5359ZM90.7687 20.897C90.7687 21.6343 90.6404 22.3157 90.3837 22.941C90.1317 23.5617 89.7747 24.1007 89.3127 24.558C88.8507 25.0107 88.2931 25.3653 87.6397 25.622C86.9911 25.874 86.2701 26 85.4767 26H81.5147V15.801H85.4767C86.2701 15.801 86.9911 15.9293 87.6397 16.186C88.2931 16.4427 88.8507 16.7973 89.3127 17.25C89.7747 17.7027 90.1317 18.2417 90.3837 18.867C90.6404 19.4877 90.7687 20.1643 90.7687 20.897ZM88.3467 20.897C88.3467 20.393 88.2814 19.938 88.1507 19.532C88.0201 19.126 87.8311 18.783 87.5837 18.503C87.3411 18.2183 87.0424 18.0013 86.6877 17.852C86.3331 17.698 85.9294 17.621 85.4767 17.621H83.8947V24.18H85.4767C85.9294 24.18 86.3331 24.1053 86.6877 23.956C87.0424 23.802 87.3411 23.585 87.5837 23.305C87.8311 23.0203 88.0201 22.675 88.1507 22.269C88.2814 21.863 88.3467 21.4057 88.3467 20.897ZM102.175 20.897C102.175 21.6343 102.047 22.3203 101.79 22.955C101.538 23.5897 101.181 24.1427 100.719 24.614C100.257 25.0807 99.6995 25.447 99.0461 25.713C98.3975 25.979 97.6765 26.112 96.8831 26.112C96.0898 26.112 95.3665 25.979 94.7131 25.713C94.0598 25.447 93.4998 25.0807 93.0331 24.614C92.5711 24.1427 92.2118 23.5897 91.9551 22.955C91.7031 22.3203 91.5771 21.6343 91.5771 20.897C91.5771 20.1597 91.7031 19.4737 91.9551 18.839C92.2118 18.2043 92.5711 17.6537 93.0331 17.187C93.4998 16.7203 94.0598 16.354 94.7131 16.088C95.3665 15.822 96.0898 15.689 96.8831 15.689C97.6765 15.689 98.3975 15.8243 99.0461 16.095C99.6995 16.361 100.257 16.7273 100.719 17.194C101.181 17.6607 101.538 18.2113 101.79 18.846C102.047 19.4807 102.175 20.1643 102.175 20.897ZM99.7531 20.897C99.7531 20.393 99.6878 19.9403 99.5571 19.539C99.4265 19.133 99.2375 18.79 98.9901 18.51C98.7475 18.23 98.4488 18.0153 98.0941 17.866C97.7395 17.7167 97.3358 17.642 96.8831 17.642C96.4258 17.642 96.0175 17.7167 95.6581 17.866C95.3035 18.0153 95.0025 18.23 94.7551 18.51C94.5125 18.79 94.3258 19.133 94.1951 19.539C94.0645 19.9403 93.9991 20.393 93.9991 20.897C93.9991 21.4057 94.0645 21.863 94.1951 22.269C94.3258 22.6703 94.5125 23.011 94.7551 23.291C95.0025 23.571 95.3035 23.7857 95.6581 23.935C96.0175 24.0797 96.4258 24.152 96.8831 24.152C97.3358 24.152 97.7395 24.0797 98.0941 23.935C98.4488 23.7857 98.7475 23.571 98.9901 23.291C99.2375 23.011 99.4265 22.6703 99.5571 22.269C99.6878 21.863 99.7531 21.4057 99.7531 20.897Z" fill="#FFC62B"/>
<path d="M28.203 19.931H28.581C28.931 19.931 29.183 19.8213 29.337 19.602L31.633 16.27C31.7683 16.0927 31.913 15.9713 32.067 15.906C32.2257 15.836 32.4217 15.801 32.655 15.801H34.713L31.689 19.924C31.4743 20.2087 31.2433 20.414 30.996 20.54C31.1733 20.6053 31.3343 20.6963 31.479 20.813C31.6237 20.9297 31.759 21.0813 31.885 21.268L34.965 26H32.851C32.7157 26 32.599 25.9907 32.501 25.972C32.4077 25.9533 32.326 25.9253 32.256 25.888C32.186 25.8507 32.1253 25.8063 32.074 25.755C32.0227 25.699 31.9737 25.636 31.927 25.566L29.617 22.017C29.533 21.8863 29.4257 21.7953 29.295 21.744C29.169 21.688 28.9963 21.66 28.777 21.66H28.203V26H25.837V15.801H28.203V19.931Z" fill="#1BACE3"/>
<path d="M39.093 13.131C39.4103 13.131 39.6927 13.0797 39.94 12.977C40.192 12.8697 40.4043 12.718 40.577 12.522C40.7497 12.326 40.8803 12.088 40.969 11.808C41.0623 11.5233 41.109 11.2013 41.109 10.842V4.801H43.475V10.842C43.475 11.4673 43.3723 12.0413 43.167 12.564C42.9663 13.0867 42.677 13.537 42.299 13.915C41.921 14.293 41.4613 14.587 40.92 14.797C40.3787 15.007 39.7697 15.112 39.093 15.112C38.4117 15.112 37.8003 15.007 37.259 14.797C36.7177 14.587 36.258 14.293 35.88 13.915C35.502 13.537 35.2127 13.0867 35.012 12.564C34.8113 12.0413 34.711 11.4673 34.711 10.842V4.801H37.077V10.835C37.077 11.1943 37.1213 11.5163 37.21 11.801C37.3033 12.081 37.4363 12.3213 37.609 12.522C37.7817 12.718 37.9917 12.8697 38.239 12.977C38.491 13.0797 38.7757 13.131 39.093 13.131ZM50.9583 6.873C50.8883 6.985 50.8137 7.069 50.7343 7.125C50.6597 7.181 50.5617 7.209 50.4403 7.209C50.333 7.209 50.2163 7.17633 50.0903 7.111C49.969 7.041 49.829 6.964 49.6703 6.88C49.5163 6.796 49.339 6.72133 49.1383 6.656C48.9377 6.586 48.709 6.551 48.4523 6.551C48.009 6.551 47.6777 6.64667 47.4583 6.838C47.2437 7.02467 47.1363 7.279 47.1363 7.601C47.1363 7.80633 47.2017 7.97667 47.3323 8.112C47.463 8.24733 47.6333 8.364 47.8433 8.462C48.058 8.56 48.3007 8.651 48.5713 8.735C48.8467 8.81433 49.1267 8.90533 49.4113 9.008C49.696 9.106 49.9737 9.22267 50.2443 9.358C50.5197 9.49333 50.7623 9.666 50.9723 9.876C51.187 10.086 51.3597 10.3427 51.4903 10.646C51.621 10.9447 51.6863 11.3063 51.6863 11.731C51.6863 12.2023 51.6047 12.6433 51.4413 13.054C51.278 13.4647 51.04 13.824 50.7273 14.132C50.4193 14.4353 50.0367 14.6757 49.5793 14.853C49.1267 15.0257 48.611 15.112 48.0323 15.112C47.715 15.112 47.3907 15.0793 47.0593 15.014C46.7327 14.9487 46.4153 14.8577 46.1073 14.741C45.7993 14.6197 45.51 14.4773 45.2393 14.314C44.9687 14.1507 44.733 13.9687 44.5323 13.768L45.2323 12.662C45.2883 12.5827 45.3607 12.5173 45.4493 12.466C45.5427 12.41 45.643 12.382 45.7503 12.382C45.8903 12.382 46.0303 12.4263 46.1703 12.515C46.315 12.6037 46.476 12.7017 46.6533 12.809C46.8353 12.9163 47.043 13.0143 47.2763 13.103C47.5097 13.1917 47.785 13.236 48.1023 13.236C48.5317 13.236 48.8653 13.1427 49.1033 12.956C49.3413 12.7647 49.4603 12.4637 49.4603 12.053C49.4603 11.815 49.395 11.6213 49.2643 11.472C49.1337 11.3227 48.961 11.199 48.7463 11.101C48.5363 11.003 48.296 10.9167 48.0253 10.842C47.7547 10.7673 47.477 10.6857 47.1923 10.597C46.9077 10.5037 46.63 10.3917 46.3593 10.261C46.0887 10.1257 45.846 9.95067 45.6313 9.736C45.4213 9.51667 45.251 9.246 45.1203 8.924C44.9897 8.59733 44.9243 8.196 44.9243 7.72C44.9243 7.33733 45.0013 6.964 45.1553 6.6C45.3093 6.236 45.5357 5.91167 45.8343 5.627C46.133 5.34233 46.4993 5.116 46.9333 4.948C47.3673 4.77533 47.8643 4.689 48.4243 4.689C48.737 4.689 49.0403 4.71467 49.3343 4.766C49.633 4.81267 49.9153 4.885 50.1813 4.983C50.4473 5.07633 50.6947 5.19067 50.9233 5.326C51.1567 5.45667 51.3643 5.606 51.5463 5.774L50.9583 6.873ZM58.2329 11.101L57.2879 8.308C57.2179 8.13067 57.1432 7.923 57.0639 7.685C56.9845 7.44233 56.9052 7.181 56.8259 6.901C56.7559 7.18567 56.6812 7.44933 56.6019 7.692C56.5225 7.93467 56.4479 8.14467 56.3779 8.322L55.4399 11.101H58.2329ZM61.9919 15H60.1579C59.9525 15 59.7869 14.9533 59.6609 14.86C59.5349 14.762 59.4392 14.6383 59.3739 14.489L58.7719 12.711H54.8939L54.2919 14.489C54.2405 14.6197 54.1472 14.7387 54.0119 14.846C53.8812 14.9487 53.7179 15 53.5219 15H51.6739L55.6219 4.801H58.0439L61.9919 15ZM69.1269 6.677H66.2569V15H63.8909V6.677H61.0209V4.801H69.1269V6.677Z" fill="#059657"/>
<path d="M29.435 9.806C30.051 9.806 30.4943 9.659 30.765 9.365C31.0357 9.071 31.171 8.66033 31.171 8.133C31.171 7.89967 31.136 7.68733 31.066 7.496C30.996 7.30467 30.8887 7.14133 30.744 7.006C30.604 6.866 30.4243 6.75867 30.205 6.684C29.9903 6.60933 29.7337 6.572 29.435 6.572H28.203V9.806H29.435ZM29.435 4.801C30.1537 4.801 30.7697 4.88733 31.283 5.06C31.801 5.228 32.2257 5.46133 32.557 5.76C32.893 6.05867 33.1403 6.411 33.299 6.817C33.4577 7.223 33.537 7.66167 33.537 8.133C33.537 8.64167 33.4553 9.10833 33.292 9.533C33.1287 9.95767 32.879 10.3217 32.543 10.625C32.207 10.9283 31.78 11.1663 31.262 11.339C30.7487 11.507 30.1397 11.591 29.435 11.591H28.203V15H25.837V4.801H29.435Z" fill="#1BACE3"/>
<path d="M9.47865 24.2745C9.47865 26.7859 8.02555 28.8279 6.23932 28.8279C4.44736 28.8279 3 26.7918 3 24.2745C3 22.2325 3.95916 20.5015 5.28016 19.9265V14.8274C5.88323 14.4812 6.5265 14.2054 7.20423 14V19.9323C8.51949 20.5015 9.47865 22.2325 9.47865 24.2745Z" fill="#FFC62B"/>
<path d="M17.5604 18.152V22.9812C17.5604 24.2076 16.7965 25.2579 15.7339 25.6628V31.1374C15.1021 31.5012 14.4302 31.7888 13.7237 32V25.6393C12.6669 25.1992 11.949 24.1019 11.949 22.8873V18.1755C11.949 17.6004 12.374 17.1193 12.9196 17.043V20.5989C12.9196 20.9333 13.1896 21.2091 13.5169 21.2091C13.6835 21.2091 13.8328 21.1387 13.942 21.0272C14.0511 20.9157 14.1143 20.7632 14.1143 20.5989V17.6826C14.1143 17.4889 14.1889 17.2953 14.3383 17.1721C14.4474 17.0841 14.5795 17.0312 14.7288 17.0312C14.8437 17.0312 14.9586 17.0606 15.0505 17.1193C15.24 17.2366 15.3434 17.4596 15.3434 17.6884V20.5989C15.3434 20.9333 15.6133 21.2091 15.9407 21.2091C16.1073 21.2091 16.2566 21.1387 16.3657 21.0272C16.4748 20.9157 16.538 20.7632 16.538 20.5989V17.0371C17.1124 17.0782 17.5604 17.5594 17.5604 18.152Z" fill="#FFC62B"/>
<path d="M1 13.5L10 10.5L19 13.5" stroke="#1BACE3" stroke-linecap="round"/>
<path d="M4 11L10 9L16 11" stroke="#1BACE3" stroke-linecap="round"/>
<path d="M1 16.3L10 13.3L19 16.3" stroke="#1BACE3" stroke-width="0.5"/>
<path d="M19 25.5L17.5 28.5L17 29.23L16.5 30L15.5 30.9999L15 31.4999L14.5 31.9999L14 32.4999L12 33.9999L10.5 35.0001" stroke="#1BACE3"/>
</svg>
