<svg width="29" height="40" viewBox="0 0 29 40" fill="none" xmlns="http://www.w3.org/2000/svg">
<path d="M27.7141 19.9825C27.6495 19.6018 27.6495 18.5301 27.401 18.465C26.9635 18.2747 26.0837 18.9708 26.2726 20.3581C26.5857 22.6318 26.2079 23.8938 26.2079 23.8938C26.2079 23.8938 26.8989 23.8287 26.8989 24.59C26.8989 25.2861 26.2079 26.1074 25.4573 27.6199C25.2684 27.9354 25.1442 28.316 24.9553 28.5013C24.2643 29.2575 23.5137 29.8886 23.1359 29.8886C23.4491 29.7634 24.4532 28.6866 24.7017 28.3711C24.8906 28.0556 26.4565 25.0257 26.4565 25.0257C26.4565 25.0257 26.8343 23.6985 25.3927 24.3295C24.3886 24.7702 22.8874 27.109 21.6943 28.2459C20.9437 28.942 19.7507 29.0672 18.4334 29.6983C16.8029 30.4545 15.4856 31.401 14.5461 32.603C15.8087 34.2557 16.1219 36.339 15.1178 38.8631C17.6231 34.1906 21.3215 35.9584 25.3927 31.8568C27.0232 30.2792 27.7738 26.8687 28.1516 25.4163C28.594 24.2143 27.9676 21.565 27.7141 19.9825Z" fill="#FFC62B"/>
<path d="M14.6157 32.5479C13.7359 31.411 12.4235 30.3994 10.7931 29.6432C9.47576 29.0121 8.28771 28.8869 7.53213 28.1908C6.3391 27.1191 4.83788 24.7202 3.83375 24.2744C2.39217 23.6434 2.76996 24.9706 2.76996 24.9706C2.76996 24.9706 4.27616 28.0005 4.52471 28.316C4.7136 28.6315 5.77738 29.7033 6.09055 29.8335C5.77738 29.8335 4.96215 29.1373 4.27119 28.3811C4.08229 28.1307 3.95802 27.8152 3.76912 27.4997C3.01851 26.0473 2.32755 25.226 2.32755 24.4698C2.32755 23.7736 3.01851 23.7736 3.01851 23.7736C3.01851 23.7736 2.64072 22.5116 2.95389 20.2379C3.14279 18.8506 2.26293 18.1545 1.82549 18.3448C1.63659 18.5351 1.57694 19.5468 1.57694 19.9224C1.39301 21.4999 0.766676 24.1492 1.07985 25.2861C1.39301 26.7384 2.20825 30.149 3.77409 31.7266C7.90992 35.8282 11.6083 34.1255 14.049 38.798C13.0499 36.2088 13.363 34.1906 14.6157 32.5479Z" fill="#1BACE3"/>
<path d="M14.6157 32.5479C13.363 34.1906 13.0499 36.2739 14.054 38.798C14.2429 39.1787 14.4318 39.5543 14.6157 40C14.8046 39.5593 14.9935 39.1136 15.1774 38.798C16.1865 36.2088 15.8684 34.1906 14.6157 32.5479Z" fill="#059657"/>
<path d="M26.4913 11.9544C26.4913 12.1598 26.4863 12.3651 26.4764 12.5704C26.4515 13.0612 26.3968 13.542 26.3173 14.0178C25.9743 16.001 25.1491 17.819 23.9611 19.3364C23.8617 19.4616 23.7622 19.5868 23.6578 19.707L22.3306 21.0442L19.7507 23.6434C18.5179 22.1861 16.6786 21.2646 14.6306 21.2646C12.5776 21.2646 10.7384 22.1911 9.50061 23.6534L6.77654 20.909L5.73761 19.8623C5.5686 19.672 5.40953 19.4767 5.25543 19.2763C4.15685 17.849 3.37145 16.1663 3.0036 14.3283C2.87435 13.6872 2.79979 13.0312 2.77493 12.3601C2.76996 12.2249 2.76996 12.0896 2.76996 11.9494C2.76499 5.3537 8.07395 0 14.6256 0C21.1773 0 26.4913 5.3537 26.4913 11.9544Z" fill="#FFC62B"/>
<path d="M19.7457 23.6434L15.3116 28.1157C14.9289 28.5013 14.3075 28.5013 13.9297 28.1157L9.50062 23.6585C10.7334 22.1961 12.5727 21.2696 14.6306 21.2696C16.6737 21.2646 18.5129 22.1861 19.7457 23.6434Z" fill="#1BACE3"/>
<path d="M23.0216 11.8192C23.0216 14.9844 21.2917 17.7488 18.7366 19.1962C18.1898 19.5067 17.6082 19.7521 16.9968 19.9324C16.2462 20.1528 15.4508 20.273 14.6257 20.273C9.98777 20.273 6.22974 16.4868 6.22974 11.8142C6.22974 8.63403 7.97454 5.86453 10.5495 4.41718C11.0714 4.1217 11.6282 3.88632 12.2147 3.71103C12.9803 3.48066 13.7856 3.35545 14.6257 3.35545C19.2635 3.36046 23.0216 7.14662 23.0216 11.8192Z" fill="white"/>
<path d="M14.1882 12.4853C14.1882 14.6288 12.9306 16.3716 11.3846 16.3716C9.83367 16.3716 8.58099 14.6338 8.58099 12.4853C8.58099 10.7424 9.41114 9.26505 10.5545 8.77425V4.42218C11.0764 4.1267 11.6332 3.89132 12.2197 3.71603V8.77926C13.3581 9.26505 14.1882 10.7424 14.1882 12.4853Z" fill="#FFC62B"/>
<path d="M20.3174 8.11319V12.2349C20.3174 13.2816 19.6562 14.178 18.7366 14.5236V19.1962C18.1898 19.5067 17.6082 19.7521 16.9968 19.9324V14.5036C16.0821 14.128 15.4608 13.1914 15.4608 12.1548V8.13322C15.4608 7.64242 15.8286 7.23175 16.3009 7.16665V10.2016C16.3009 10.487 16.5345 10.7224 16.8178 10.7224C16.962 10.7224 17.0912 10.6623 17.1857 10.5672C17.2801 10.472 17.3348 10.3418 17.3348 10.2016V7.71254C17.3348 7.54727 17.3994 7.382 17.5287 7.27683C17.6231 7.20171 17.7375 7.15663 17.8667 7.15663C17.9661 7.15663 18.0655 7.18167 18.1451 7.23175C18.3091 7.33192 18.3986 7.52223 18.3986 7.71754V10.2016C18.3986 10.487 18.6322 10.7224 18.9156 10.7224C19.0597 10.7224 19.189 10.6623 19.2834 10.5672C19.3779 10.472 19.4326 10.3418 19.4326 10.2016V7.16164C19.9297 7.1967 20.3174 7.60736 20.3174 8.11319Z" fill="#FFC62B"/>
</svg>